<?xml version="1.0" encoding="UTF-8"?>
<svg width="111px" height="18px" viewBox="0 0 111 18" version="1.1" xmlns="http://www.w3.org/2000/svg" xmlns:xlink="http://www.w3.org/1999/xlink">
    <!-- Generator: Sketch 52.2 (67145) - http://www.bohemiancoding.com/sketch -->
    <title>Group 6</title>
    <desc>Created with Sketch.</desc>
    <g id="Page-1" stroke="none" stroke-width="1" fill="none" fill-rule="evenodd">
        <g id="Artboard-Copy-6" transform="translate(-47.000000, -24.000000)">
            <g id="Group-6" transform="translate(47.000000, 24.000000)">
                <rect id="Rectangle" fill="#FFFFFF" fill-rule="nonzero" x="68" y="0" width="43" height="18" rx="2"></rect>
                <path d="M5.2734375,15 L2.5234375,6.0390625 L2.453125,6.0390625 C2.55208383,7.86198828 2.6015625,9.07812195 2.6015625,9.6875 L2.6015625,15 L0.4375,15 L0.4375,3.578125 L3.734375,3.578125 L6.4375,12.3125 L6.484375,12.3125 L9.3515625,3.578125 L12.6484375,3.578125 L12.6484375,15 L10.390625,15 L10.390625,9.59375 C10.390625,9.33854039 10.3945312,9.0442725 10.4023438,8.7109375 C10.4101563,8.3776025 10.4453122,7.49219469 10.5078125,6.0546875 L10.4375,6.0546875 L7.4921875,15 L5.2734375,15 Z M21.9015625,15 L15.3234375,15 L15.3234375,3.578125 L21.9015625,3.578125 L21.9015625,5.5625 L17.7453125,5.5625 L17.7453125,8.0703125 L21.6125,8.0703125 L21.6125,10.0546875 L17.7453125,10.0546875 L17.7453125,13 L21.9015625,13 L21.9015625,15 Z M28.490625,15 L26.06875,15 L26.06875,5.59375 L22.9671875,5.59375 L22.9671875,3.578125 L31.5921875,3.578125 L31.5921875,5.59375 L28.490625,5.59375 L28.490625,15 Z M35.571875,8.6484375 L36.353125,8.6484375 C37.1187538,8.6484375 37.6838523,8.52083461 38.0484375,8.265625 C38.4130226,8.01041539 38.5953125,7.60937773 38.5953125,7.0625 C38.5953125,6.52083063 38.4091164,6.13541781 38.0367187,5.90625 C37.664321,5.67708219 37.0875039,5.5625 36.30625,5.5625 L35.571875,5.5625 L35.571875,8.6484375 Z M35.571875,10.6171875 L35.571875,15 L33.15,15 L33.15,3.578125 L36.478125,3.578125 C38.0302161,3.578125 39.1786421,3.86067426 39.9234375,4.42578125 C40.6682329,4.99088824 41.040625,5.84895258 41.040625,7 C41.040625,7.67187836 40.855731,8.26952863 40.4859375,8.79296875 C40.116144,9.31640887 39.5927117,9.72656102 38.915625,10.0234375 C40.6343836,12.5911587 41.7541641,14.2499963 42.275,15 L39.5875,15 L36.8609375,10.6171875 L35.571875,10.6171875 Z M43.5125,15 L43.5125,3.578125 L45.934375,3.578125 L45.934375,15 L43.5125,15 Z M53.4609375,5.4296875 C52.5494746,5.4296875 51.8437525,5.77213199 51.34375,6.45703125 C50.8437475,7.14193051 50.59375,8.09634805 50.59375,9.3203125 C50.59375,11.8672002 51.5494696,13.140625 53.4609375,13.140625 C54.2630248,13.140625 55.2343693,12.9401062 56.375,12.5390625 L56.375,14.5703125 C55.4374953,14.9609395 54.3906308,15.15625 53.234375,15.15625 C51.5729083,15.15625 50.3020877,14.6523488 49.421875,13.6445312 C48.5416623,12.6367137 48.1015625,11.1901136 48.1015625,9.3046875 C48.1015625,8.11718156 48.3177062,7.07682738 48.75,6.18359375 C49.1822938,5.29036012 49.8033814,4.60547113 50.6132812,4.12890625 C51.4231811,3.65234137 52.3723904,3.4140625 53.4609375,3.4140625 C54.570318,3.4140625 55.6848902,3.68228898 56.8046875,4.21875 L56.0234375,6.1875 C55.596352,5.98437398 55.1666688,5.80729242 54.734375,5.65625 C54.3020812,5.50520758 53.8776062,5.4296875 53.4609375,5.4296875 Z M65.346875,11.828125 C65.346875,12.8593802 64.9757849,13.671872 64.2335937,14.265625 C63.4914025,14.859378 62.4588608,15.15625 61.1359375,15.15625 C59.9171814,15.15625 58.8390672,14.9270856 57.9015625,14.46875 L57.9015625,12.21875 C58.6723997,12.5625017 59.3247369,12.8046868 59.8585937,12.9453125 C60.3924506,13.0859382 60.8807269,13.15625 61.3234375,13.15625 C61.8546901,13.15625 62.2622381,13.0546885 62.5460937,12.8515625 C62.8299493,12.6484365 62.971875,12.3463562 62.971875,11.9453125 C62.971875,11.721353 62.9093756,11.5221363 62.784375,11.3476562 C62.6593744,11.1731762 62.4757824,11.0052091 62.2335937,10.84375 C61.991405,10.6822909 61.4979204,10.4244809 60.753125,10.0703125 C60.0552048,9.74218586 59.5317726,9.42708484 59.1828125,9.125 C58.8338524,8.82291516 58.5552094,8.47135617 58.346875,8.0703125 C58.1385406,7.66926883 58.034375,7.20052352 58.034375,6.6640625 C58.034375,5.65364078 58.3768195,4.85937789 59.0617187,4.28125 C59.746618,3.70312211 60.6932231,3.4140625 61.9015625,3.4140625 C62.4953155,3.4140625 63.061716,3.4843743 63.6007812,3.625 C64.1398464,3.7656257 64.7036429,3.96354039 65.2921875,4.21875 L64.5109375,6.1015625 C63.9015594,5.85156125 63.3976582,5.67708383 62.9992187,5.578125 C62.6007792,5.47916617 62.2088561,5.4296875 61.8234375,5.4296875 C61.3651019,5.4296875 61.0135429,5.53645727 60.76875,5.75 C60.5239571,5.96354273 60.4015625,6.24218578 60.4015625,6.5859375 C60.4015625,6.79948023 60.4510412,6.98567629 60.55,7.14453125 C60.6489588,7.30338621 60.8065093,7.45703051 61.0226562,7.60546875 C61.2388031,7.75390699 61.7505168,8.02083141 62.5578125,8.40625 C63.6255262,8.91666922 64.3572897,9.42838285 64.753125,9.94140625 C65.1489603,10.4544296 65.346875,11.0833296 65.346875,11.828125 Z" id="METRICS" fill="#FFFFFF"></path>
                <path d="M73.859375,8.953125 L74.65625,8.953125 C75.4010454,8.953125 75.9583315,8.80599105 76.328125,8.51171875 C76.6979185,8.21744645 76.8828125,7.78906531 76.8828125,7.2265625 C76.8828125,6.65885133 76.7278661,6.23958469 76.4179688,5.96875 C76.1080714,5.69791531 75.6223991,5.5625 74.9609375,5.5625 L73.859375,5.5625 L73.859375,8.953125 Z M79.328125,7.140625 C79.328125,8.36979781 78.9440143,9.30989258 78.1757812,9.9609375 C77.4075482,10.6119824 76.3151113,10.9375 74.8984375,10.9375 L73.859375,10.9375 L73.859375,15 L71.4375,15 L71.4375,3.578125 L75.0859375,3.578125 C76.4713611,3.578125 77.524736,3.8762991 78.2460938,4.47265625 C78.9674515,5.0690134 79.328125,5.95832742 79.328125,7.140625 Z M81.284375,15 L81.284375,3.578125 L83.70625,3.578125 L83.70625,13 L88.3390625,13 L88.3390625,15 L81.284375,15 Z M99.2640625,3.578125 L99.2640625,10.96875 C99.2640625,11.8125042 99.0752623,12.5520802 98.6976562,13.1875 C98.3200502,13.8229198 97.7744827,14.3098941 97.0609375,14.6484375 C96.3473923,14.9869809 95.5036507,15.15625 94.5296875,15.15625 C93.0609302,15.15625 91.9203166,14.7799517 91.1078125,14.0273438 C90.2953084,13.2747358 89.8890625,12.2447982 89.8890625,10.9375 L89.8890625,3.578125 L92.303125,3.578125 L92.303125,10.5703125 C92.303125,11.4505252 92.4802066,12.0963521 92.834375,12.5078125 C93.1885434,12.9192729 93.7744751,13.125 94.5921875,13.125 C95.3838581,13.125 95.9580711,12.9179708 96.3148437,12.5039062 C96.6716164,12.0898417 96.85,11.4401086 96.85,10.5546875 L96.85,3.578125 L99.2640625,3.578125 Z M108.603125,11.828125 C108.603125,12.8593802 108.232035,13.671872 107.489844,14.265625 C106.747653,14.859378 105.715111,15.15625 104.392187,15.15625 C103.173431,15.15625 102.095317,14.9270856 101.157812,14.46875 L101.157812,12.21875 C101.92865,12.5625017 102.580987,12.8046868 103.114844,12.9453125 C103.648701,13.0859382 104.136977,13.15625 104.579687,13.15625 C105.11094,13.15625 105.518488,13.0546885 105.802344,12.8515625 C106.086199,12.6484365 106.228125,12.3463562 106.228125,11.9453125 C106.228125,11.721353 106.165626,11.5221363 106.040625,11.3476562 C105.915624,11.1731762 105.732032,11.0052091 105.489844,10.84375 C105.247655,10.6822909 104.75417,10.4244809 104.009375,10.0703125 C103.311455,9.74218586 102.788023,9.42708484 102.439062,9.125 C102.090102,8.82291516 101.811459,8.47135617 101.603125,8.0703125 C101.394791,7.66926883 101.290625,7.20052352 101.290625,6.6640625 C101.290625,5.65364078 101.633069,4.85937789 102.317969,4.28125 C103.002868,3.70312211 103.949473,3.4140625 105.157812,3.4140625 C105.751565,3.4140625 106.317966,3.4843743 106.857031,3.625 C107.396096,3.7656257 107.959893,3.96354039 108.548437,4.21875 L107.767187,6.1015625 C107.157809,5.85156125 106.653908,5.67708383 106.255469,5.578125 C105.857029,5.47916617 105.465106,5.4296875 105.079687,5.4296875 C104.621352,5.4296875 104.269793,5.53645727 104.025,5.75 C103.780207,5.96354273 103.657812,6.24218578 103.657812,6.5859375 C103.657812,6.79948023 103.707291,6.98567629 103.80625,7.14453125 C103.905209,7.30338621 104.062759,7.45703051 104.278906,7.60546875 C104.495053,7.75390699 105.006767,8.02083141 105.814062,8.40625 C106.881776,8.91666922 107.61354,9.42838285 108.009375,9.94140625 C108.40521,10.4544296 108.603125,11.0833296 108.603125,11.828125 Z" id="PLUS" fill="#047EFF"></path>
            </g>
        </g>
    </g>
</svg>